<svg width="128" height="127" viewBox="0 0 128 127" fill="none" xmlns="http://www.w3.org/2000/svg">
<rect x="0.5" width="127" height="127" rx="63.5" fill="#EEEDFC"/>
<path d="M81.4673 16.0534C81.4673 16.0534 81.3449 16.0534 81.1092 16.0534C80.765 16.033 80.4198 16.033 80.0756 16.0534C78.7443 16.1314 77.4363 16.4381 76.209 16.96C74.2637 17.7755 72.5707 19.0945 71.3043 20.7813C70.5235 21.8346 69.9427 23.0223 69.5908 24.2853C68.7975 27.294 69.226 30.4942 70.783 33.1881C71.2074 33.934 71.7253 34.6225 72.3242 35.237C72.9284 35.8881 73.6322 36.4389 74.4094 36.8689C75.2069 37.3177 76.11 37.5447 77.0249 37.5262C77.9682 37.5149 78.8728 37.1492 79.5589 36.5017C79.8906 36.1542 80.1506 35.7448 80.324 35.2968C80.4974 34.8488 80.5809 34.371 80.5697 33.8907C80.5628 32.8929 80.246 31.9219 79.6631 31.112C78.4891 29.4575 76.5852 28.3469 74.559 27.7485C72.4579 27.1584 70.2391 27.1272 68.1222 27.6579C67.0416 27.939 66.0001 28.3531 65.0216 28.8909C64.0337 29.4483 63.1365 30.153 62.3607 30.9806C62.1749 31.1936 61.9618 31.3885 61.7941 31.6243L61.2819 32.3133C60.9704 32.7988 60.6918 33.3046 60.4478 33.8273C59.9629 34.8885 59.6317 36.0134 59.4641 37.1681C59.1351 39.4748 59.4488 41.8276 60.3707 43.9676C61.2519 46.0586 62.7866 47.8079 64.7451 48.9539C65.6946 49.4964 66.7546 49.8172 67.8456 49.8922C68.9154 49.952 69.9793 49.6967 70.9054 49.1579C71.8246 48.6498 72.551 47.8533 72.9724 46.8914C73.37 45.9433 73.3975 44.8806 73.0495 43.9132C72.6913 42.9798 72.1054 42.1508 71.3451 41.5016C70.6077 40.8644 69.7575 40.3708 68.8384 40.0465C67.0459 39.4814 65.128 39.4483 63.3172 39.9513C61.6228 40.4105 60.0665 41.2773 58.7842 42.4762C57.6162 43.5952 56.7266 44.9722 56.1868 46.497C55.2425 49.1426 55.286 52.0403 56.3092 54.6564C57.1072 56.6094 58.3914 58.3259 60.0398 59.6426C61.0782 60.4755 62.2347 61.1492 63.4713 61.6417C63.8974 61.8004 64.2283 61.9182 64.455 61.9817L64.7904 62.0905C64.7904 62.0905 64.6725 62.0678 64.4459 62.0043C64.111 61.9147 63.7811 61.8073 63.4577 61.6825C62.2048 61.2117 61.0333 60.5479 59.9854 59.7152C58.3091 58.3993 56.9995 56.6744 56.1823 54.7062C55.1411 52.0654 55.0879 49.1375 56.0327 46.4607C56.5735 44.9128 57.4729 43.5149 58.6573 42.381C59.9577 41.1581 61.5371 40.2711 63.2583 39.7972C65.1071 39.2814 67.0659 39.3129 68.8973 39.8879C69.8434 40.2178 70.7186 40.7239 71.4766 41.3792C72.2667 42.0497 72.8748 42.9088 73.2444 43.8769C73.6172 44.8876 73.6011 46.0007 73.1991 47.0001C72.752 48 71.9935 48.8284 71.0369 49.3618C70.0765 49.9215 68.9739 50.1893 67.8638 50.1324C66.7461 50.0545 65.6609 49.7227 64.6907 49.1624C62.6875 48.0004 61.1146 46.2208 60.2076 44.09C59.2658 41.9108 58.9427 39.5143 59.2738 37.1636C59.4468 35.9855 59.7856 34.8379 60.2801 33.7548C60.5291 33.221 60.8138 32.7045 61.1323 32.209L61.6581 31.5064C61.8258 31.2661 62.0434 31.0531 62.2338 30.8446C63.0278 30.0013 63.9447 29.283 64.9536 28.7141C65.9549 28.1661 67.0209 27.7458 68.1267 27.463C70.284 26.9223 72.5452 26.9552 74.6859 27.5582C76.753 28.1746 78.6885 29.3034 79.9079 31.0168C80.5208 31.8605 80.8537 32.8752 80.8599 33.9179C80.8819 34.9442 80.4955 35.9372 79.7855 36.6785C79.0603 37.3593 78.1057 37.7428 77.1111 37.7529C76.1593 37.7745 75.2194 37.5379 74.3913 37.0684C73.5956 36.6293 72.8761 36.0645 72.2608 35.3957C71.654 34.7674 71.1286 34.0653 70.6969 33.306C69.1121 30.5621 68.6817 27.3012 69.5002 24.24C69.863 22.9624 70.4576 21.7623 71.2545 20.6997C72.5442 19.0001 74.266 17.6774 76.2407 16.8694C77.4781 16.3575 78.7965 16.069 80.1346 16.0172C80.4817 15.9943 80.83 15.9943 81.1772 16.0172L81.4673 16.0534Z" fill="#263238"/>
<path d="M96.6029 61.4102H33.0459V110.43H96.6029V61.4102Z" fill="#ACA5F9"/>
<path d="M33.0459 61.4102L44.7863 72.3618H107.265L96.6029 61.4102H33.0459Z" fill="#ACA5F9"/>
<path d="M33.0459 61.4102L96.621 61.2969H96.6709L96.7072 61.3286L107.26 72.167L107.369 72.2803L107.564 72.4798H107.283L44.8045 72.4299H44.7773L33.0459 61.4102L44.8317 72.2894H44.7818L107.26 72.244L107.178 72.4435L107.065 72.3302L96.5168 61.4918L96.5984 61.5281L33.0459 61.4102Z" fill="#263238"/>
<path d="M52.1388 84.0164C51.7945 84.0288 51.4689 84.176 51.232 84.4261C50.9951 84.6762 50.8658 85.0094 50.8721 85.3539C50.8783 85.6983 51.0196 86.0266 51.2654 86.268C51.5112 86.5094 51.8419 86.6446 52.1864 86.6446C52.531 86.6446 52.8617 86.5094 53.1075 86.268C53.3533 86.0266 53.4945 85.6983 53.5008 85.3539C53.507 85.0094 53.3778 84.6762 53.1409 84.4261C52.904 84.176 52.5783 84.0288 52.234 84.0164" fill="#263238"/>
<path d="M67.1566 84.0164C66.8138 84.0294 66.4897 84.1765 66.2541 84.4259C66.0185 84.6754 65.8902 85.0073 65.8967 85.3504C65.9032 85.6934 66.0441 86.0202 66.289 86.2606C66.534 86.5009 66.8634 86.6355 67.2065 86.6355C67.5496 86.6355 67.8791 86.5009 68.124 86.2606C68.3689 86.0202 68.5098 85.6934 68.5163 85.3504C68.5228 85.0073 68.3945 84.6754 68.1589 84.4259C67.9233 84.1765 67.5992 84.0294 67.2564 84.0164" fill="#263238"/>
<path d="M67.2427 95.7476C66.9807 94.7463 66.5549 93.7951 65.9826 92.9326C65.346 92.0102 64.5286 91.2268 63.5801 90.6299C62.4357 89.8704 61.101 89.4478 59.7281 89.4101C58.3552 89.3725 56.9994 89.7213 55.8151 90.4168C54.837 90.9629 53.9784 91.6997 53.2902 92.5836C52.6704 93.4142 52.1939 94.3427 51.8804 95.3306C51.8839 95.2569 51.8961 95.1838 51.9167 95.113C51.9601 94.9088 52.0162 94.7074 52.0844 94.5101C52.3328 93.782 52.6954 93.098 53.1588 92.4839C53.8421 91.5586 54.7114 90.7866 55.7108 90.2174C56.9256 89.4922 58.3217 89.1276 59.736 89.1661C61.1503 89.2046 62.5244 89.6447 63.6979 90.435C64.6629 91.0552 65.4875 91.8705 66.1186 92.8284C66.5492 93.4677 66.8751 94.1716 67.0841 94.9135C67.1399 95.1148 67.1838 95.3191 67.2155 95.5255C67.2312 95.5986 67.2403 95.6729 67.2427 95.7476Z" fill="#263238"/>
<path opacity="0.5" d="M33.1909 61.9497L44.4328 76.2014H96.6029V72.362H44.7863L33.1909 61.9497Z" fill="black"/>
<path d="M84.0692 110.321C84.0058 110.321 83.9514 101.795 83.9514 91.2829C83.9514 80.7709 84.0058 72.2444 84.0692 72.2444C84.1327 72.2444 84.1916 80.7664 84.1916 91.2829C84.1916 101.799 84.1372 110.321 84.0692 110.321Z" fill="#263238"/>
<path d="M94.0509 99.2065H88.4481V105.539H94.0509V99.2065Z" fill="#F5F5F5"/>
<path d="M33.0459 61.4102L20 72.3618H33.0459V61.4102Z" fill="#ACA5F9"/>
<g opacity="0.4">
<path d="M33.0459 61.4102L20 72.3618H33.0459V61.4102Z" fill="black"/>
</g>
</svg>
