<svg width="69" height="55" viewBox="0 0 69 55" fill="none" xmlns="http://www.w3.org/2000/svg">
<path d="M4.71999 54.7976C3.49694 54.7928 2.32562 54.3036 1.46249 53.4371C0.599355 52.5706 0.114737 51.3973 0.114746 50.1743V9.97898C0.150124 8.96438 0.586163 8.00516 1.32736 7.3114C2.06855 6.61765 3.05448 6.24591 4.0692 6.27762H7.8474C8.5908 6.2924 9.32348 6.09873 9.96247 5.71853C10.6015 5.33833 11.1212 4.7868 11.4629 4.1264L12.2719 2.47682C12.6118 1.8199 13.128 1.27067 13.7626 0.890701C14.3973 0.510733 15.1252 0.315053 15.8648 0.3256H33.8022C34.4762 0.316863 35.1416 0.477866 35.7371 0.793778C36.3326 1.10969 36.839 1.57035 37.2098 2.13335L38.091 3.52983C38.4611 4.09248 38.9667 4.55296 39.5614 4.86888C40.1561 5.18479 40.8208 5.34598 41.4941 5.33758H64.3622C65.378 5.30469 66.3653 5.67663 67.1068 6.37161C67.8484 7.06658 68.2836 8.02768 68.3166 9.04348V50.1698C68.3166 51.396 67.8295 52.5719 66.9625 53.439C66.0954 54.306 64.9195 54.7931 63.6933 54.7931L4.71999 54.7976Z" fill="#F7A932"/>
<g opacity="0.3">
<path d="M4.71999 54.7976C3.49694 54.7928 2.32562 54.3036 1.46249 53.4371C0.599355 52.5706 0.114737 51.3973 0.114746 50.1743V9.97898C0.150124 8.96438 0.586163 8.00516 1.32736 7.3114C2.06855 6.61765 3.05448 6.24591 4.0692 6.27762H7.8474C8.5908 6.2924 9.32348 6.09873 9.96247 5.71853C10.6015 5.33833 11.1212 4.7868 11.4629 4.1264L12.2719 2.47682C12.6118 1.8199 13.128 1.27067 13.7626 0.890701C14.3973 0.510733 15.1252 0.315053 15.8648 0.3256H33.8022C34.4762 0.316863 35.1416 0.477866 35.7371 0.793778C36.3326 1.10969 36.839 1.57035 37.2098 2.13335L38.091 3.52983C38.4611 4.09248 38.9667 4.55296 39.5614 4.86888C40.1561 5.18479 40.8208 5.34598 41.4941 5.33758H64.3622C65.378 5.30469 66.3653 5.67663 67.1068 6.37161C67.8484 7.06658 68.2836 8.02768 68.3166 9.04348V50.1698C68.3166 51.396 67.8295 52.5719 66.9625 53.439C66.0954 54.306 64.9195 54.7931 63.6933 54.7931L4.71999 54.7976Z" fill="black"/>
</g>
<path d="M39.1984 5.36018L24.646 5.32855L23.3489 2.89713C22.9079 2.1078 22.2619 1.45221 21.4791 0.999584C20.6964 0.546961 19.806 0.314104 18.9019 0.325601H4.67939C2.14854 0.325601 0.0967407 2.24634 0.0967407 4.61901V49.9212C0.0967407 52.6328 2.42873 54.7976 5.30305 54.7976H63.0697C65.9485 54.7976 68.276 52.6148 68.276 49.9212V8.69096C68.276 7.80758 67.9251 6.96039 67.3005 6.33575C66.6758 5.71111 65.8286 5.36018 64.9452 5.36018H39.1984Z" fill="#F7A932"/>
<path d="M46.5333 39.6895H40.0932C39.9733 39.6895 39.8584 39.6419 39.7736 39.5572C39.6889 39.4724 39.6413 39.3575 39.6413 39.2376C39.6413 39.1177 39.6889 39.0028 39.7736 38.918C39.8584 38.8333 39.9733 38.7857 40.0932 38.7857H46.5333C48.2034 38.789 49.8087 38.1397 51.0069 36.9763C52.2051 35.8129 52.9015 34.2275 52.9474 32.558C52.9934 30.8886 52.3854 29.2672 51.253 28.0396C50.1207 26.8121 48.5535 26.0754 46.8858 25.9868C46.7894 25.9821 46.697 25.9467 46.6222 25.8857C46.5474 25.8247 46.494 25.7413 46.47 25.6478C45.9943 23.8106 45.0169 22.1418 43.6471 20.8282C42.2774 19.5145 40.5693 18.6077 38.7138 18.2091C36.8582 17.8105 34.9284 17.9359 33.14 18.5712C31.3516 19.2064 29.7752 20.3266 28.5869 21.8064C28.5385 21.8673 28.4752 21.9147 28.4032 21.944C28.3311 21.9733 28.2527 21.9835 28.1756 21.9736C27.8519 21.9318 27.5258 21.9106 27.1994 21.9103C24.996 21.9613 22.9 22.8724 21.3597 24.4488C19.8194 26.0252 18.957 28.1417 18.957 30.3457C18.957 32.5497 19.8194 34.6662 21.3597 36.2426C22.9 37.819 24.996 38.7301 27.1994 38.7811H32.4193C32.5392 38.7811 32.6541 38.8288 32.7389 38.9135C32.8236 38.9983 32.8712 39.1132 32.8712 39.2331C32.8712 39.3529 32.8236 39.4679 32.7389 39.5526C32.6541 39.6374 32.5392 39.685 32.4193 39.685H27.1768C24.6981 39.685 22.3209 38.7003 20.5682 36.9476C18.8154 35.1949 17.8307 32.8177 17.8307 30.339C17.8307 27.8602 18.8154 25.483 20.5682 23.7303C22.3209 21.9776 24.6981 20.9929 27.1768 20.9929C27.4546 20.993 27.7322 21.0081 28.0084 21.0381C29.3063 19.4869 31.0018 18.3181 32.9133 17.657C34.8248 16.9959 36.8802 16.8675 38.8591 17.2855C40.838 17.7035 42.6658 18.6521 44.1467 20.0297C45.6276 21.4073 46.7057 23.1619 47.2654 25.1055C49.1427 25.2801 50.8801 26.1731 52.1147 27.5981C53.3493 29.023 53.9858 30.8698 53.8914 32.7528C53.7969 34.6359 52.9787 36.4097 51.6077 37.7039C50.2366 38.9981 48.4187 39.7127 46.5333 39.6986V39.6895Z" fill="white"/>
<path d="M36.1206 43.811C36.0007 43.811 35.8858 43.7634 35.801 43.6786C35.7163 43.5939 35.6686 43.4789 35.6686 43.359V31.6087C35.6686 31.4888 35.7163 31.3739 35.801 31.2891C35.8858 31.2044 36.0007 31.1567 36.1206 31.1567C36.2404 31.1567 36.3554 31.2044 36.4401 31.2891C36.5249 31.3739 36.5725 31.4888 36.5725 31.6087V43.359C36.5725 43.4789 36.5249 43.5939 36.4401 43.6786C36.3554 43.7634 36.2404 43.811 36.1206 43.811Z" fill="white"/>
<path d="M39.5554 36.2862C39.4844 36.2869 39.4144 36.2709 39.3508 36.2395C39.2872 36.2081 39.2319 36.1622 39.1893 36.1055L36.1975 32.0923C36.1865 32.0791 36.1726 32.0685 36.157 32.0615C36.1413 32.0544 36.1243 32.051 36.1071 32.0516C36.0907 32.052 36.0746 32.0559 36.0599 32.0629C36.0451 32.0699 36.0319 32.0799 36.0212 32.0923L32.8577 35.9925C32.7815 36.0866 32.6712 36.1466 32.5508 36.1593C32.4305 36.172 32.31 36.1364 32.2159 36.0603C32.1218 35.9842 32.0618 35.8738 32.0491 35.7534C32.0364 35.6331 32.072 35.5126 32.1481 35.4185L35.3117 31.5183C35.4111 31.3992 35.5356 31.3035 35.6761 31.2379C35.8167 31.1723 35.97 31.1384 36.1252 31.1387C36.2796 31.1409 36.4315 31.1783 36.5693 31.248C36.7071 31.3177 36.8272 31.4179 36.9206 31.5409L39.9214 35.5586C39.9575 35.6065 39.9837 35.6611 39.9985 35.7192C40.0132 35.7773 40.0163 35.8378 40.0075 35.8971C39.9986 35.9564 39.9781 36.0134 39.947 36.0647C39.916 36.116 39.875 36.1605 39.8265 36.1958C39.7483 36.2545 39.6532 36.2862 39.5554 36.2862Z" fill="white"/>
</svg>
