<svg width="95" height="20" viewBox="0 0 95 20" fill="none" xmlns="http://www.w3.org/2000/svg">
<path d="M8.32 19.26C5.98 19.26 4.14267 18.766 2.808 17.778C1.47333 16.7727 0.806 15.724 0.806 14.632C0.806 14.2507 0.918667 13.9387 1.144 13.696C1.36933 13.436 1.68133 13.3147 2.08 13.332C2.444 13.3493 2.76467 13.4793 3.042 13.722C3.31933 13.9473 3.536 14.2333 3.692 14.58C3.86533 14.9267 4.07333 15.2993 4.316 15.698C4.576 16.0967 4.85333 16.4693 5.148 16.816C5.46 17.1627 5.89333 17.4487 6.448 17.674C7.02 17.8993 7.68733 18.012 8.45 18.012C9.50733 18.012 10.3653 17.726 11.024 17.154C11.6827 16.582 12.012 15.828 12.012 14.892C12.012 14.0947 11.8127 13.436 11.414 12.916C11.0153 12.396 10.4953 12.0147 9.854 11.772C9.23 11.5293 8.528 11.33 7.748 11.174C6.98533 11.0007 6.214 10.81 5.434 10.602C4.67133 10.3767 3.96933 10.0907 3.328 9.744C2.704 9.39733 2.19267 8.86867 1.794 8.158C1.39533 7.44733 1.196 6.56333 1.196 5.506C1.196 3.998 1.794 2.75867 2.99 1.788C4.186 0.799999 5.824 0.305999 7.904 0.305999C9.984 0.305999 11.6653 0.765333 12.948 1.684C14.248 2.58533 14.8893 3.582 14.872 4.674C14.872 5.558 14.4213 6 13.52 6C13.1387 6 12.8093 5.896 12.532 5.688C12.272 5.46267 12.0727 5.18533 11.934 4.856C11.7953 4.52667 11.6133 4.17133 11.388 3.79C11.18 3.39133 10.946 3.02733 10.686 2.698C10.4433 2.36867 10.0707 2.1 9.568 1.892C9.08267 1.66667 8.502 1.554 7.826 1.554C6.734 1.554 5.88467 1.84867 5.278 2.438C4.67133 3.02733 4.368 3.764 4.368 4.648C4.368 5.41067 4.56733 6.04333 4.966 6.546C5.36467 7.03133 5.876 7.39533 6.5 7.638C7.14133 7.88067 7.84333 8.09733 8.606 8.288C9.386 8.46133 10.1573 8.66933 10.92 8.912C11.7 9.13733 12.402 9.432 13.026 9.796C13.6673 10.16 14.1873 10.6973 14.586 11.408C14.9847 12.1187 15.184 12.994 15.184 14.034C15.184 15.6287 14.5167 16.9027 13.182 17.856C11.8473 18.792 10.2267 19.26 8.32 19.26ZM23.2247 19.26C21.3527 19.26 19.7667 18.6273 18.4667 17.362C17.184 16.0793 16.5427 14.528 16.5427 12.708C16.5427 10.784 17.1754 9.23267 18.4407 8.054C19.706 6.87533 21.2574 6.27733 23.0947 6.26C24.516 6.24267 25.738 6.58933 26.7607 7.3C27.8007 7.99333 28.3207 8.79067 28.3207 9.692C28.3207 10.0213 28.208 10.2987 27.9827 10.524C27.7747 10.732 27.4454 10.8273 26.9947 10.81C26.5787 10.7927 26.206 10.5933 25.8767 10.212C25.5474 9.83067 25.2787 9.42333 25.0707 8.99C24.8627 8.55667 24.542 8.158 24.1087 7.794C23.6927 7.43 23.19 7.248 22.6007 7.248C21.7167 7.248 20.9974 7.62933 20.4427 8.392C19.888 9.15467 19.6107 10.108 19.6107 11.252C19.6107 13.02 20.0354 14.4413 20.8847 15.516C21.734 16.5733 22.852 17.102 24.2387 17.102C25.7467 17.102 26.8647 16.3913 27.5927 14.97C27.7314 14.762 27.9134 14.684 28.1387 14.736C28.364 14.788 28.4594 14.944 28.4247 15.204C28.286 16.3133 27.7574 17.2667 26.8387 18.064C25.9374 18.8613 24.7327 19.26 23.2247 19.26ZM37.1583 6.26C37.9036 6.26 38.4843 6.468 38.9003 6.884C39.3336 7.3 39.5503 7.82 39.5503 8.444C39.5503 9.536 39.0996 10.082 38.1983 10.082C37.8169 10.082 37.5223 9.978 37.3143 9.77C37.1063 9.562 36.9763 9.328 36.9243 9.068C36.8723 8.808 36.7509 8.574 36.5603 8.366C36.3696 8.158 36.1096 8.054 35.7803 8.054C35.2083 8.054 34.7663 8.366 34.4543 8.99C34.1423 9.614 33.9863 10.3767 33.9863 11.278V16.842C33.9863 17.2233 34.1856 17.5613 34.5843 17.856C34.9829 18.1507 35.1823 18.376 35.1823 18.532V18.636C35.1823 18.8787 35.0003 19 34.6363 19H30.6063C30.2423 19 30.0603 18.8787 30.0603 18.636V18.532C30.0603 18.376 30.2249 18.1507 30.5543 17.856C30.8836 17.5613 31.0483 17.2233 31.0483 16.842V9.848C31.0483 9.44933 30.8576 9.11133 30.4763 8.834C30.1123 8.53933 29.9303 8.314 29.9303 8.158V8.08C29.9303 7.88933 30.0863 7.70733 30.3983 7.534L32.9463 6.364C33.4489 6.12133 33.7003 6.26867 33.7003 6.806V8.834C34.2896 7.118 35.4423 6.26 37.1583 6.26ZM50.7943 15.178C50.9329 14.9873 51.1063 14.918 51.3143 14.97C51.5396 15.022 51.6436 15.178 51.6263 15.438C51.4876 16.3567 50.9503 17.2233 50.0143 18.038C49.0783 18.8527 47.8563 19.26 46.3483 19.26C44.5803 19.26 43.1069 18.6533 41.9283 17.44C40.7669 16.2267 40.1863 14.632 40.1863 12.656C40.1863 10.8187 40.7843 9.29333 41.9803 8.08C43.1936 6.86667 44.6669 6.26 46.4003 6.26C47.9603 6.26 49.1563 6.65 49.9883 7.43C50.8376 8.19267 51.2623 9.07667 51.2623 10.082C51.2623 10.9833 50.8203 11.59 49.9363 11.902L43.6443 14.216C43.9736 15.1173 44.4676 15.8193 45.1263 16.322C45.7849 16.8247 46.5649 17.076 47.4663 17.076C48.2463 17.076 48.9223 16.9027 49.4943 16.556C50.0836 16.192 50.5169 15.7327 50.7943 15.178ZM45.8803 7.248C45.0656 7.248 44.4156 7.638 43.9303 8.418C43.4449 9.198 43.2023 10.2207 43.2023 11.486C43.2023 12.0753 43.2543 12.63 43.3583 13.15L47.6743 11.278C48.1249 11.07 48.3503 10.706 48.3503 10.186C48.3503 9.562 48.1076 8.92067 47.6223 8.262C47.1543 7.586 46.5736 7.248 45.8803 7.248ZM63.6165 15.178C63.7552 14.9873 63.9285 14.918 64.1365 14.97C64.3618 15.022 64.4658 15.178 64.4485 15.438C64.3098 16.3567 63.7725 17.2233 62.8365 18.038C61.9005 18.8527 60.6785 19.26 59.1705 19.26C57.4025 19.26 55.9292 18.6533 54.7505 17.44C53.5892 16.2267 53.0085 14.632 53.0085 12.656C53.0085 10.8187 53.6065 9.29333 54.8025 8.08C56.0158 6.86667 57.4892 6.26 59.2225 6.26C60.7825 6.26 61.9785 6.65 62.8105 7.43C63.6598 8.19267 64.0845 9.07667 64.0845 10.082C64.0845 10.9833 63.6425 11.59 62.7585 11.902L56.4665 14.216C56.7958 15.1173 57.2898 15.8193 57.9485 16.322C58.6072 16.8247 59.3872 17.076 60.2885 17.076C61.0685 17.076 61.7445 16.9027 62.3165 16.556C62.9058 16.192 63.3392 15.7327 63.6165 15.178ZM58.7025 7.248C57.8878 7.248 57.2378 7.638 56.7525 8.418C56.2672 9.198 56.0245 10.2207 56.0245 11.486C56.0245 12.0753 56.0765 12.63 56.1805 13.15L60.4965 11.278C60.9472 11.07 61.1725 10.706 61.1725 10.186C61.1725 9.562 60.9298 8.92067 60.4445 8.262C59.9765 7.586 59.3958 7.248 58.7025 7.248ZM78.8828 16.816C78.9001 17.1973 79.0561 17.544 79.3508 17.856C79.6628 18.1507 79.8188 18.376 79.8188 18.532V18.636C79.8188 18.896 79.6281 19.026 79.2468 19.026H75.4508C75.0694 19.026 74.8788 18.896 74.8788 18.636V18.532C74.8788 18.376 75.0348 18.1507 75.3468 17.856C75.6761 17.544 75.8321 17.1973 75.8148 16.816L75.5548 11.798C75.4334 8.938 74.5234 7.508 72.8248 7.508C72.0101 7.508 71.3514 7.81133 70.8488 8.418C70.3461 9.00733 70.0948 9.77867 70.0948 10.732V16.842C70.0948 17.2233 70.2681 17.5613 70.6148 17.856C70.9788 18.1507 71.1608 18.376 71.1608 18.532V18.636C71.1608 18.896 70.9701 19.026 70.5888 19.026H66.5588C66.1948 19.026 66.0128 18.896 66.0128 18.636V18.532C66.0128 18.376 66.1861 18.1507 66.5328 17.856C66.8794 17.5613 67.0528 17.2233 67.0528 16.842V9.874C67.0528 9.54467 66.9488 9.276 66.7408 9.068C66.5501 8.86 66.3594 8.69533 66.1688 8.574C65.9781 8.43533 65.8828 8.288 65.8828 8.132V8.054C65.8828 7.88067 66.0388 7.72467 66.3508 7.586L68.8728 6.364C69.1501 6.24267 69.3494 6.234 69.4708 6.338C69.6094 6.42467 69.6788 6.58933 69.6788 6.832V8.522C70.0428 7.81133 70.5714 7.25667 71.2648 6.858C71.9581 6.45933 72.7468 6.26 73.6308 6.26C74.9654 6.26 76.0921 6.71933 77.0108 7.638C77.9294 8.55667 78.4494 9.978 78.5708 11.902L78.8828 16.816ZM88.0319 8.366C89.8519 8.38333 91.3166 8.87733 92.4259 9.848C93.5526 10.8013 94.1159 12.0493 94.1159 13.592C94.1159 15.204 93.5006 16.556 92.2699 17.648C91.0393 18.7227 89.3753 19.26 87.2779 19.26C85.3193 19.26 83.8113 18.896 82.7539 18.168C81.6966 17.44 81.1679 16.66 81.1679 15.828C81.1679 15.3427 81.2893 14.9613 81.5319 14.684C81.7919 14.3893 82.1386 14.242 82.5719 14.242C83.0053 14.242 83.3866 14.4413 83.7159 14.84C84.0453 15.2213 84.3139 15.646 84.5219 16.114C84.7473 16.5647 85.1026 16.9893 85.5879 17.388C86.0906 17.7693 86.6973 17.96 87.4079 17.96C88.4826 17.96 89.3493 17.622 90.0079 16.946C90.6839 16.2527 91.0219 15.3427 91.0219 14.216C91.0219 12.812 90.6493 11.7287 89.9039 10.966C89.1586 10.186 88.1966 9.796 87.0179 9.796H86.6539C86.3246 9.796 86.0993 9.68333 85.9779 9.458C85.8739 9.21533 85.9259 8.964 86.1339 8.704L90.4759 3.218H82.1039C81.6706 3.218 81.4539 3.01 81.4539 2.594V1.112C81.4539 0.730666 81.6619 0.539999 82.0779 0.539999H93.4139C93.7953 0.539999 93.9859 0.704666 93.9859 1.034V1.32C93.9859 1.59733 93.8299 1.918 93.5179 2.282L88.0319 8.366Z" fill="#0B0A1D"/>
</svg>
