<svg width="77" height="17" viewBox="0 0 77 17" fill="none" xmlns="http://www.w3.org/2000/svg">
<path d="M30.3034 2.31985V0.295166H30.683V2.30629C30.683 3.1469 31.0762 3.53104 31.7632 3.53104C32.4501 3.53104 32.8478 3.1469 32.8478 2.30629V0.295166H33.2139V2.31985C33.2139 3.33671 32.667 3.86096 31.7632 3.86096C30.8593 3.86096 30.3034 3.33671 30.3034 2.31985Z" fill="#263238"/>
<path d="M36.9514 2.50543C36.9615 2.68344 36.9344 2.86161 36.8719 3.02858C36.8094 3.19556 36.7127 3.34768 36.5882 3.47524C36.4636 3.6028 36.3138 3.70301 36.1483 3.76947C35.9829 3.83592 35.8054 3.86718 35.6272 3.86124C35.4277 3.86781 35.2298 3.82307 35.0526 3.73128C34.8753 3.63948 34.7246 3.50372 34.6148 3.33699V4.81934H34.2578V1.20384H34.6013V1.69645C34.7092 1.52321 34.8608 1.38144 35.0409 1.28544C35.221 1.18944 35.4232 1.14259 35.6272 1.14961C35.8052 1.14436 35.9824 1.17608 36.1475 1.24278C36.3127 1.30948 36.4622 1.4097 36.5866 1.53711C36.711 1.66453 36.8077 1.81636 36.8705 1.98302C36.9333 2.14969 36.9608 2.32758 36.9514 2.50543ZM36.5943 2.50543C36.5864 2.31071 36.5213 2.12262 36.4074 1.96456C36.2934 1.80649 36.1354 1.6854 35.9532 1.61635C35.771 1.54729 35.5725 1.53331 35.3824 1.57615C35.1922 1.61898 35.0189 1.71675 34.8839 1.85728C34.7489 1.99782 34.6582 2.17492 34.623 2.36659C34.5878 2.55827 34.6097 2.75607 34.686 2.93539C34.7623 3.11471 34.8896 3.26765 35.0521 3.37521C35.2147 3.48276 35.4052 3.54019 35.6001 3.54035C35.7347 3.54242 35.8683 3.51675 35.9925 3.46494C36.1168 3.41312 36.2291 3.33628 36.3223 3.23919C36.4156 3.1421 36.4879 3.02685 36.5347 2.90061C36.5815 2.77437 36.6018 2.63985 36.5943 2.50543Z" fill="#263238"/>
<path d="M37.6835 0.0830078H38.0405V3.8341H37.6835V0.0830078Z" fill="#263238"/>
<path d="M38.7727 2.50547C38.7727 2.23732 38.8522 1.97518 39.0012 1.75222C39.1502 1.52926 39.3619 1.35548 39.6097 1.25286C39.8574 1.15025 40.13 1.1234 40.393 1.17571C40.656 1.22802 40.8976 1.35714 41.0872 1.54676C41.2769 1.73637 41.406 1.97796 41.4583 2.24097C41.5106 2.50397 41.4838 2.77657 41.3811 3.02431C41.2785 3.27205 41.1047 3.48381 40.8818 3.63279C40.6588 3.78177 40.3967 3.86128 40.1285 3.86128C39.9488 3.86759 39.7697 3.83685 39.6023 3.77094C39.435 3.70504 39.283 3.60539 39.1558 3.47821C39.0286 3.35103 38.929 3.19904 38.8631 3.03169C38.7972 2.86434 38.7664 2.68522 38.7727 2.50547ZM41.1138 2.50547C41.1049 2.3117 41.0393 2.12479 40.9251 1.96799C40.8109 1.81119 40.6532 1.69141 40.4714 1.62352C40.2897 1.55564 40.0921 1.54264 39.9031 1.58615C39.714 1.62966 39.5419 1.72774 39.4082 1.86824C39.2744 2.00873 39.1849 2.18543 39.1508 2.37638C39.1166 2.56732 39.1393 2.7641 39.2161 2.94225C39.2928 3.1204 39.4202 3.27206 39.5824 3.37841C39.7447 3.48475 39.9346 3.54108 40.1285 3.5404C40.2628 3.54256 40.396 3.51687 40.5198 3.46497C40.6436 3.41306 40.7554 3.33606 40.8479 3.23882C40.9405 3.14158 41.0119 3.02621 41.0577 2.89999C41.1034 2.77377 41.1225 2.63944 41.1138 2.50547Z" fill="#263238"/>
<path d="M44.2005 2.18436V3.83394H43.857V3.41816C43.7598 3.56672 43.625 3.68684 43.4662 3.76624C43.3074 3.84564 43.1303 3.88147 42.9532 3.87009C42.3521 3.87009 41.986 3.55826 41.986 3.09728C41.986 2.63631 42.2481 2.34707 43.0119 2.34707H43.8525V2.18436C43.8525 1.73242 43.5949 1.47934 43.1023 1.47934C42.7726 1.47133 42.4512 1.58381 42.1984 1.7957L42.0357 1.52454C42.3442 1.28529 42.7256 1.15925 43.1159 1.1675C43.2574 1.1457 43.4021 1.15638 43.5389 1.19873C43.6758 1.24108 43.8012 1.314 43.9057 1.41197C44.0102 1.50993 44.091 1.63037 44.1421 1.76419C44.1932 1.898 44.2132 2.04168 44.2005 2.18436ZM43.839 3.03401V2.58207H43.0074C42.4922 2.58207 42.325 2.78545 42.325 3.05661C42.325 3.32777 42.5735 3.55825 42.9984 3.55825C43.1736 3.57118 43.3486 3.52944 43.4991 3.43879C43.6497 3.34814 43.7684 3.21303 43.839 3.05209V3.03401Z" fill="#263238"/>
<path d="M47.6081 0.0827643V3.83385H47.2646V3.30508C47.1584 3.48014 47.0072 3.62359 46.8268 3.72054C46.6464 3.81749 46.4434 3.86441 46.2387 3.85644C45.8792 3.85644 45.5343 3.71359 45.28 3.45933C45.0258 3.20507 44.8829 2.86022 44.8829 2.50063C44.8829 2.14105 45.0258 1.7962 45.28 1.54193C45.5343 1.28767 45.8792 1.14482 46.2387 1.14482C46.4383 1.1378 46.6363 1.18236 46.8137 1.27419C46.991 1.36602 47.1416 1.50203 47.2511 1.66907V0.0737305L47.6081 0.0827643ZM47.2556 2.50516C47.2467 2.31138 47.1811 2.12448 47.0669 1.96768C46.9527 1.81088 46.795 1.6911 46.6133 1.62321C46.4316 1.55532 46.2339 1.54233 46.0449 1.58583C45.8559 1.62934 45.6838 1.72743 45.55 1.86792C45.4163 2.00842 45.3268 2.18512 45.2926 2.37606C45.2585 2.56701 45.2812 2.76379 45.3579 2.94194C45.4346 3.12009 45.562 3.27175 45.7243 3.3781C45.8865 3.48444 46.0764 3.54077 46.2704 3.54008C46.4044 3.54157 46.5373 3.51543 46.6609 3.46329C46.7844 3.41115 46.8958 3.33414 46.9882 3.23704C47.0807 3.13995 47.1521 3.02485 47.1981 2.89893C47.2441 2.77301 47.2637 2.63897 47.2556 2.50516Z" fill="#263238"/>
<path d="M48.3763 3.58062C48.375 3.54485 48.381 3.5092 48.3939 3.4758C48.4067 3.4424 48.4262 3.41192 48.4511 3.38619C48.476 3.36047 48.5058 3.34002 48.5387 3.32606C48.5717 3.3121 48.6071 3.30491 48.6429 3.30493C48.6789 3.30493 48.7145 3.31208 48.7477 3.32599C48.7809 3.3399 48.811 3.36029 48.8363 3.38595C48.8615 3.41161 48.8814 3.44203 48.8947 3.47546C48.9081 3.50888 48.9147 3.54463 48.9141 3.58062C48.9141 3.65296 48.8856 3.7224 48.8349 3.77397C48.7842 3.82554 48.7152 3.85511 48.6429 3.8563C48.6073 3.85571 48.5721 3.84811 48.5395 3.83394C48.5068 3.81977 48.4772 3.7993 48.4525 3.7737C48.4277 3.74809 48.4082 3.71787 48.3952 3.68474C48.3821 3.65161 48.3757 3.61623 48.3763 3.58062Z" fill="#263238"/>
<path d="M49.4475 3.58062C49.4469 3.54501 49.4533 3.50962 49.4664 3.47649C49.4795 3.44336 49.4989 3.41315 49.5237 3.38755C49.5485 3.36195 49.578 3.34146 49.6107 3.32729C49.6434 3.31311 49.6785 3.30552 49.7141 3.30493C49.7501 3.30493 49.7858 3.31208 49.819 3.32599C49.8522 3.3399 49.8823 3.36029 49.9075 3.38595C49.9327 3.41161 49.9526 3.44203 49.966 3.47546C49.9793 3.50888 49.9859 3.54463 49.9853 3.58062C49.9853 3.65296 49.9569 3.7224 49.9062 3.77397C49.8554 3.82554 49.7865 3.85511 49.7141 3.8563C49.6785 3.85571 49.6434 3.84811 49.6107 3.83394C49.578 3.81977 49.5485 3.7993 49.5237 3.7737C49.4989 3.74809 49.4795 3.71786 49.4664 3.68474C49.4533 3.65161 49.4469 3.61623 49.4475 3.58062Z" fill="#263238"/>
<path d="M50.5186 3.58062C50.5174 3.54485 50.5234 3.5092 50.5362 3.4758C50.5491 3.4424 50.5685 3.41192 50.5934 3.38619C50.6183 3.36047 50.6481 3.34002 50.6811 3.32606C50.714 3.3121 50.7494 3.30491 50.7852 3.30493C50.8212 3.30493 50.8568 3.31208 50.89 3.32599C50.9232 3.3399 50.9533 3.36029 50.9786 3.38595C51.0038 3.41161 51.0237 3.44203 51.0371 3.47546C51.0504 3.50888 51.057 3.54463 51.0564 3.58062C51.0564 3.65296 51.028 3.7224 50.9772 3.77397C50.9265 3.82554 50.8576 3.85511 50.7852 3.8563C50.7496 3.85571 50.7145 3.84811 50.6818 3.83394C50.6491 3.81977 50.6196 3.7993 50.5948 3.7737C50.57 3.74809 50.5506 3.71787 50.5375 3.68474C50.5244 3.65161 50.518 3.61623 50.5186 3.58062Z" fill="#263238"/>
<path d="M73.5313 9.8811H3.04713C1.39229 9.8811 0.0507812 11.2226 0.0507812 12.8775V13.7497C0.0507812 15.4045 1.39229 16.746 3.04713 16.746H73.5313C75.1861 16.746 76.5276 15.4045 76.5276 13.7497V12.8775C76.5276 11.2226 75.1861 9.8811 73.5313 9.8811Z" fill="#E0E0E0"/>
<path d="M35.2929 9.8811H3.04713C1.39229 9.8811 0.0507812 11.2226 0.0507812 12.8775V13.7497C0.0507812 15.4045 1.39229 16.746 3.04713 16.746H35.2929C36.9477 16.746 38.2892 15.4045 38.2892 13.7497V12.8775C38.2892 11.2226 36.9477 9.8811 35.2929 9.8811Z" fill="#F7A932"/>
<g opacity="0.3">
<path d="M5.82653 9.8811L1.75909 16.3393L2.39633 16.624C2.5768 16.705 2.77247 16.7466 2.97028 16.746H4.26283L8.68278 9.8811H5.82653Z" fill="white"/>
</g>
<g opacity="0.3">
<path d="M13.1027 9.8811L8.77765 16.746H11.539L15.9544 9.8811H13.1027Z" fill="white"/>
</g>
<g opacity="0.3">
<path d="M20.3744 9.8811L16.0493 16.746H18.8107L23.2306 9.8811H20.3744Z" fill="white"/>
</g>
<g opacity="0.3">
<path d="M27.6505 9.8811L23.3209 16.746H26.0823L30.5022 9.8811H27.6505Z" fill="white"/>
</g>
<g opacity="0.3">
<path d="M34.9223 9.8811L30.5972 16.746H33.3586L36.8385 11.3228L37.2543 10.7353C36.721 10.1613 35.903 9.92178 34.9223 9.8811Z" fill="white"/>
</g>
<path d="M73.617 16.7458C73.617 16.7458 73.7571 16.7458 74.0283 16.7006C74.4312 16.6452 74.8178 16.505 75.1627 16.2894C75.7283 15.9432 76.1624 15.4184 76.3965 14.798C76.5442 14.4056 76.6118 13.9876 76.5953 13.5687C76.6233 13.0914 76.5868 12.6126 76.4868 12.1451C76.3433 11.6028 76.0488 11.1124 75.6376 10.7308C75.2264 10.3492 74.7154 10.0921 74.1639 9.98935C73.8526 9.94505 73.538 9.92841 73.2239 9.93963H70.1326H60.2713L3.18258 9.97127C2.50994 9.97184 1.85827 10.2054 1.33838 10.6322C0.818483 11.059 0.462459 11.6527 0.330856 12.3123C0.28053 12.6442 0.262371 12.9802 0.276626 13.3156C0.262166 13.65 0.2849 13.985 0.344414 14.3144C0.479773 14.9533 0.827075 15.5278 1.32996 15.9445C1.83285 16.3613 2.46182 16.5959 3.11479 16.6102H9.12556H24.2835L49.9491 16.6373L67.2538 16.6735L71.9584 16.6961H67.2538L49.9491 16.7368L24.2835 16.7594H9.12556H3.11479C2.40321 16.7529 1.71497 16.5047 1.16308 16.0555C0.611194 15.6063 0.228473 14.9827 0.0777721 14.2873C0.0135787 13.9417 -0.0106855 13.5899 0.0054605 13.2388C-0.0106869 12.8882 0.00900137 12.5369 0.0642146 12.1903C0.204693 11.4764 0.588979 10.8336 1.15127 10.3719C1.71356 9.91018 2.41887 9.65832 3.14643 9.65943L60.2352 9.69559H70.0964H73.1877C73.5097 9.68332 73.8322 9.70299 74.1503 9.75433C74.7196 9.86296 75.2464 10.1308 75.6696 10.5268C76.0927 10.9228 76.3949 11.4306 76.5411 11.9914C76.6374 12.4686 76.6708 12.9563 76.6405 13.4421C76.6518 13.8707 76.5796 14.2975 76.4281 14.6985C76.181 15.3271 75.7329 15.8562 75.1536 16.2035C74.7999 16.4153 74.4058 16.5508 73.9967 16.6012C73.8748 16.6609 73.7477 16.7093 73.617 16.7458Z" fill="#263238"/>
</svg>
