<svg viewBox="0 0 215 168" fill="none" xmlns="http://www.w3.org/2000/svg">
<path d="M191.773 126.215H191.388V166.806H191.773V126.215Z" fill="#263238"/>
<path d="M203.444 110.282L192.432 166.806H192.042L203.069 110.206L203.444 110.282Z" fill="#263238"/>
<path d="M191.444 166.806H191.064L187.729 95.971L188.109 95.9507L191.388 165.712L191.444 166.806Z" fill="#263238"/>
<path d="M198.984 82.4708C198.036 85.3292 196.427 87.9233 194.286 90.0418C191.393 93.0165 188.418 94.6331 188.443 94.9524C188.535 95.8544 189.411 97.2277 189.345 97.5267C189.28 97.8257 188.54 98.1247 187.921 98.1247C187.303 98.1247 186.563 97.8257 186.492 97.5267C186.421 97.2277 187.303 95.8544 187.389 94.9524C187.455 94.3138 175.384 88.4354 176.215 76.8102C176.646 70.8456 180.416 68.4334 183.609 67.4604C184.497 67.1943 185.408 67.0094 186.33 66.9081C186.858 66.8467 187.39 66.8146 187.921 66.8118C189.619 66.8118 198.928 67.2273 199.618 76.8102C199.764 78.7201 199.549 80.6405 198.984 82.4708Z" fill="#FFC727"/>
<path opacity="0.1" d="M188.443 94.9524C188.535 95.8544 189.411 97.2277 189.345 97.5267C189.28 97.8257 188.54 98.1247 187.921 98.1247C187.303 98.1247 186.563 97.8257 186.492 97.5267C186.421 97.2277 187.303 95.8544 187.389 94.9524C187.455 94.3139 175.384 88.4354 176.215 76.8102C176.646 70.8456 180.416 68.4334 183.609 67.4604C180.776 69.8878 177.284 74.6565 179.808 82.4201C182.144 89.5908 189.006 91.7142 194.286 90.0216C191.393 93.0165 188.418 94.6331 188.443 94.9524Z" fill="black"/>
<path d="M195.994 73.3491C195.994 73.8693 195.84 74.3778 195.551 74.8103C195.262 75.2428 194.851 75.5799 194.371 75.779C193.89 75.9781 193.361 76.0301 192.851 75.9287C192.341 75.8272 191.872 75.5767 191.504 75.2089C191.137 74.841 190.886 74.3724 190.785 73.8622C190.683 73.352 190.735 72.8232 190.934 72.3426C191.133 71.862 191.471 71.4512 191.903 71.1622C192.336 70.8732 192.844 70.719 193.364 70.719C194.062 70.719 194.731 70.9961 195.224 71.4893C195.717 71.9826 195.994 72.6516 195.994 73.3491Z" fill="white"/>
<path d="M214.319 95.9608C213.376 98.8232 211.766 101.42 209.621 103.537C206.733 106.512 203.753 108.128 203.783 108.442C203.875 109.344 204.751 110.718 204.68 111.017C204.609 111.316 203.88 111.615 203.256 111.615C202.633 111.615 201.898 111.316 201.832 111.017C201.766 110.718 202.638 109.344 202.729 108.442C202.79 107.809 190.719 101.93 191.555 90.3053C191.986 84.3357 195.751 81.9235 198.949 80.9555C199.837 80.6856 200.748 80.499 201.67 80.3981C202.197 80.3378 202.726 80.3074 203.256 80.3069C204.959 80.3069 214.268 80.7174 214.958 90.3053C215.1 92.2138 214.884 94.1322 214.319 95.9608Z" fill="#C7C7C7"/>
<path d="M203.773 108.442C203.864 109.344 204.741 110.718 204.67 111.017C204.599 111.316 203.87 111.615 203.246 111.615C202.623 111.615 201.888 111.316 201.822 111.017C201.756 110.718 202.628 109.344 202.719 108.442C202.78 107.809 190.709 101.931 191.545 90.3054C191.976 84.3357 195.741 81.9235 198.939 80.9556C196.101 83.3779 192.609 88.1465 195.138 95.9152C197.469 103.081 204.331 105.209 209.611 103.517C206.733 106.512 203.773 108.128 203.773 108.442Z" fill="#A6A6A6"/>
<path d="M211.704 86.8742C211.704 87.3944 211.55 87.9029 211.261 88.3355C210.972 88.768 210.561 89.1051 210.08 89.3041C209.6 89.5032 209.071 89.5553 208.561 89.4538C208.051 89.3523 207.582 89.1018 207.214 88.734C206.846 88.3662 206.596 87.8975 206.494 87.3873C206.393 86.8772 206.445 86.3483 206.644 85.8677C206.843 85.3872 207.18 84.9764 207.613 84.6874C208.045 84.3984 208.554 84.2441 209.074 84.2441C209.771 84.2441 210.44 84.5212 210.934 85.0145C211.427 85.5077 211.704 86.1767 211.704 86.8742Z" fill="white"/>
<path d="M202.638 111.909C201.675 114.793 200.041 117.407 197.869 119.535C195.001 122.459 192.082 124.046 192.107 124.36C192.199 125.262 193.075 126.635 193.009 126.934C192.944 127.233 192.204 127.532 191.585 127.532C190.967 127.532 190.227 127.233 190.156 126.934C190.085 126.635 190.967 125.262 191.053 124.36C191.114 123.726 179.043 117.848 179.904 106.223C180.34 100.207 184.161 97.8054 187.369 96.8476C188.254 96.5878 189.159 96.4064 190.075 96.3054C190.764 96.2344 191.307 96.2192 191.596 96.2192C193.293 96.2192 202.602 96.6348 203.292 106.223C203.434 108.142 203.213 110.072 202.638 111.909Z" fill="#37474F"/>
<path d="M179.879 106.223C180.315 100.207 184.136 97.8054 187.344 96.8477C184.491 99.2396 180.872 104.034 183.432 111.904C185.758 119.054 192.594 121.188 197.869 119.535C195.001 122.459 192.082 124.046 192.107 124.36C192.199 125.262 193.075 126.635 193.009 126.934C192.944 127.233 192.204 127.532 191.585 127.532C190.967 127.532 190.227 127.233 190.156 126.934C190.085 126.635 190.967 125.262 191.053 124.36C191.104 123.726 179.043 117.848 179.879 106.223Z" fill="#263238"/>
<path d="M199.719 102.706C199.719 103.226 199.565 103.734 199.276 104.167C198.987 104.6 198.576 104.937 198.095 105.136C197.615 105.335 197.086 105.387 196.576 105.285C196.066 105.184 195.597 104.933 195.229 104.566C194.861 104.198 194.611 103.729 194.509 103.219C194.408 102.709 194.46 102.18 194.659 101.699C194.858 101.219 195.195 100.808 195.628 100.519C196.06 100.23 196.569 100.076 197.089 100.076C197.786 100.076 198.455 100.353 198.949 100.846C199.442 101.339 199.719 102.008 199.719 102.706Z" fill="white"/>
<path d="M195.417 157.385H188.18V166.842H195.417V157.385Z" fill="#FFC727"/>
<path d="M15.5763 126.215H15.1912V166.806H15.5763V126.215Z" fill="#263238"/>
<path d="M27.242 110.282L16.2301 166.806H15.8398L26.8721 110.206L27.242 110.282Z" fill="#263238"/>
<path d="M15.2419 166.806H14.8618L11.5273 95.971L11.9125 95.9507L15.1912 165.712L15.2419 166.806Z" fill="#263238"/>
<path d="M22.7825 82.4706C21.8385 85.3308 20.2284 87.9258 18.0848 90.0416C15.1963 93.0163 12.2165 94.6329 12.2469 94.9522C12.3381 95.8542 13.2148 97.2275 13.1439 97.5265C13.0729 97.8255 12.3432 98.1245 11.7199 98.1245C11.0965 98.1245 10.3668 97.8255 10.2958 97.5265C10.2249 97.2275 11.1016 95.8542 11.1928 94.9522C11.2536 94.3136 -0.817483 88.4352 0.0440153 76.81C0.449426 70.8454 4.21468 68.4535 7.41236 67.44C8.30232 67.1893 9.21314 67.0197 10.1337 66.9332C10.6602 66.8719 11.1898 66.8398 11.7199 66.8369C13.4226 66.8369 22.7318 67.2525 23.421 76.8354C23.5602 78.7371 23.3436 80.6482 22.7825 82.4706Z" fill="#C7C7C7"/>
<path d="M12.2469 94.9524C12.3381 95.8544 13.2148 97.2277 13.1439 97.5267C13.0729 97.8257 12.3432 98.1247 11.7199 98.1247C11.0965 98.1247 10.3668 97.8257 10.2958 97.5267C10.2249 97.2277 11.1016 95.8544 11.1928 94.9524C11.2536 94.3139 -0.817483 88.4354 0.0440153 76.8102C0.449426 70.8456 4.21468 68.4537 7.41236 67.4402C4.57448 69.8676 1.08288 74.6362 3.61163 82.3998C5.94275 89.5706 12.8043 91.6939 18.0848 90.0013C15.1963 93.0165 12.2165 94.6331 12.2469 94.9524Z" fill="#A6A6A6"/>
<path d="M19.8179 73.3491C19.8179 73.8693 19.6637 74.3778 19.3747 74.8103C19.0857 75.2428 18.6749 75.5799 18.1943 75.779C17.7138 75.9781 17.1849 76.0301 16.6747 75.9287C16.1645 75.8272 15.6959 75.5767 15.3281 75.2089C14.9603 74.841 14.7098 74.3724 14.6083 73.8622C14.5068 73.352 14.5589 72.8232 14.7579 72.3426C14.957 71.862 15.2941 71.4512 15.7266 71.1622C16.1592 70.8732 16.6677 70.719 17.1878 70.719C17.8854 70.719 18.5544 70.9961 19.0476 71.4893C19.5408 71.9826 19.8179 72.6516 19.8179 73.3491Z" fill="white"/>
<path d="M38.1223 95.9608C37.1776 98.8222 35.5676 101.419 33.4246 103.537C30.531 106.512 27.5562 108.128 27.5867 108.442C27.6728 109.344 28.5546 110.718 28.4836 111.017C28.4127 111.316 27.6779 111.615 27.0596 111.615C26.4414 111.615 25.7015 111.316 25.6305 111.017C25.5596 110.718 26.4414 109.344 26.5275 108.442C26.5934 107.809 14.5223 101.93 15.3787 90.3053C15.8044 84.3357 19.5747 81.9235 22.7673 80.9555C23.6553 80.6861 24.5663 80.4995 25.4887 80.3981C26.0169 80.3379 26.5482 80.3075 27.0799 80.3069C28.7775 80.3069 38.0919 80.7174 38.7811 90.3053C38.9172 92.2151 38.6937 94.1335 38.1223 95.9608Z" fill="#37474F"/>
<path d="M27.5867 108.442C27.6728 109.344 28.5546 110.718 28.4836 111.017C28.4127 111.316 27.6779 111.615 27.0596 111.615C26.4414 111.615 25.7015 111.316 25.6305 111.017C25.5596 110.718 26.4414 109.344 26.5275 108.442C26.5934 107.809 14.5223 101.931 15.3787 90.3054C15.8044 84.3357 19.5747 81.9235 22.7673 80.9556C19.9345 83.3779 16.4429 88.1465 18.9666 95.9152C21.3028 103.081 28.1644 105.209 33.4448 103.517C30.5309 106.512 27.5562 108.128 27.5867 108.442Z" fill="#263238"/>
<path d="M35.5275 86.8742C35.5285 87.3959 35.3747 87.906 35.0855 88.3402C34.7964 88.7743 34.3849 89.1128 33.9031 89.3129C33.4214 89.513 32.8912 89.5656 32.3795 89.4641C31.8679 89.3626 31.3979 89.1115 31.029 88.7427C30.6602 88.3738 30.4091 87.9038 30.3076 87.3922C30.2061 86.8805 30.2587 86.3503 30.4588 85.8685C30.6588 85.3868 30.9974 84.9753 31.4315 84.6861C31.8656 84.397 32.3758 84.2431 32.8974 84.2441C33.595 84.2441 34.264 84.5212 34.7572 85.0145C35.2504 85.5077 35.5275 86.1767 35.5275 86.8742Z" fill="white"/>
<path d="M26.4363 111.909C25.4777 114.795 23.8426 117.41 21.6677 119.535C18.7994 122.459 15.8804 124.046 15.9108 124.36C15.997 125.262 16.8787 126.635 16.8078 126.934C16.7368 127.233 16.0071 127.532 15.3838 127.532C14.7605 127.532 14.0257 127.233 13.9598 126.934C13.8939 126.635 14.7655 125.262 14.8568 124.36C14.9176 123.726 2.84646 117.848 3.70796 106.223C4.1387 100.207 7.96477 97.8054 11.1726 96.8476C12.0493 96.5961 12.9463 96.4215 13.8534 96.3257C14.5426 96.2547 15.0848 96.2395 15.3737 96.2395C17.0764 96.2395 26.3856 96.6551 27.0748 106.243C27.2224 108.155 27.0057 110.078 26.4363 111.909Z" fill="#FFC727"/>
<path opacity="0.1" d="M3.68263 106.223C4.11338 100.207 7.93945 97.8054 11.1473 96.8477C8.29418 99.2396 4.67589 104.034 7.23505 111.904C9.56109 119.054 16.3923 121.188 21.6677 119.535C18.7994 122.459 15.8804 124.046 15.9108 124.36C15.997 125.262 16.8788 126.635 16.8078 126.934C16.7369 127.233 16.0071 127.532 15.3838 127.532C14.7605 127.532 14.0257 127.233 13.9598 126.934C13.8939 126.635 14.7656 125.262 14.8568 124.36C14.9176 123.726 2.84647 117.848 3.68263 106.223Z" fill="black"/>
<path d="M23.5072 102.706C23.5072 103.226 23.3529 103.734 23.0639 104.167C22.7749 104.6 22.3641 104.937 21.8835 105.136C21.403 105.335 20.8741 105.387 20.3639 105.285C19.8538 105.184 19.3851 104.933 19.0173 104.566C18.6495 104.198 18.399 103.729 18.2975 103.219C18.196 102.709 18.2481 102.18 18.4472 101.699C18.6462 101.219 18.9833 100.808 19.4158 100.519C19.8484 100.23 20.3569 100.076 20.8771 100.076C21.5742 100.077 22.2424 100.355 22.7353 100.848C23.2283 101.34 23.5058 102.009 23.5072 102.706Z" fill="white"/>
<path d="M19.22 157.385H11.9834V166.842H19.22V157.385Z" fill="#FFC727"/>
<path d="M3.06433 166.801L29.1677 166.68L55.2762 166.634L107.488 166.548L159.7 166.634L185.808 166.68L211.912 166.801L185.808 166.928L159.7 166.968L107.488 167.055L55.2762 166.968L29.1677 166.923L3.06433 166.801Z" fill="#263238"/>
<path d="M192.188 31.6525C137.137 49.5351 77.8386 49.5351 22.7875 31.6525C26.2132 21.1016 29.6406 10.5508 33.0697 0C81.4375 15.7148 133.538 15.7148 181.906 0C185.335 10.5508 188.763 21.1016 192.188 31.6525Z" fill="#FFC727"/>
<path d="M59.2087 16.7889L61.8033 17.2957C62.0702 18.9106 62.3456 20.5288 62.6293 22.1505C63.4604 20.7315 64.2797 19.3075 65.0871 17.8785C65.9588 18.0305 66.8338 18.1775 67.7122 18.3194C66.5466 20.2755 65.3642 22.2282 64.1648 24.1775C64.5466 25.7553 64.9385 27.3313 65.3405 28.9056C67.3676 25.561 69.3288 22.1978 71.2241 18.816C72.2376 18.968 73.268 19.1116 74.3153 19.2467C71.7105 23.6015 68.9994 27.9158 66.1818 32.1895C65.3405 32.0577 64.5044 31.9209 63.6479 31.779C63.0804 29.7013 62.5364 27.6218 62.0162 25.5407C60.8067 27.3144 59.5752 29.0779 58.3219 30.8313C57.4857 30.6743 56.6546 30.5121 55.8184 30.3246C54.6698 25.338 53.6326 20.3565 52.7069 15.3801C53.7204 15.6065 54.7255 15.8261 55.7222 16.0389C56.3472 19.8734 57.033 23.7096 57.7796 27.5475C58.6918 26.1961 59.5904 24.8448 60.4756 23.4934C60.0364 21.2637 59.6141 19.0288 59.2087 16.7889Z" fill="white"/>
<path d="M84.9928 32.0781C84.9218 32.8686 84.856 33.6592 84.785 34.4548C81.1971 34.1474 77.616 33.7639 74.0416 33.3044C74.6329 28.6828 75.2224 24.0594 75.8102 19.4343C79.1414 19.86 82.4742 20.2164 85.8087 20.5036C85.7377 21.2941 85.6719 22.0898 85.6009 22.8803C83.1955 22.6675 80.79 22.4225 78.3846 22.1455C78.2528 23.2604 78.1261 24.3753 77.9944 25.4902C80.1025 25.7368 82.209 25.9547 84.3137 26.1439L84.1161 28.3432C81.9877 28.1507 79.8627 27.9311 77.741 27.6844C77.6042 28.8905 77.4623 30.0966 77.3255 31.3027C79.866 31.5967 82.4218 31.8551 84.9928 32.0781Z" fill="white"/>
<path d="M87.1465 34.6476C87.5046 29.9955 87.8627 25.3467 88.2208 20.7014C89.1735 20.7774 90.1263 20.8433 91.079 20.9092L90.3188 32.4735C92.9337 32.6458 95.5503 32.7776 98.1686 32.8688C98.1382 33.6644 98.1129 34.455 98.0824 35.2506C94.4337 35.1324 90.7884 34.9313 87.1465 34.6476Z" fill="white"/>
<path d="M98.2498 28.1708C98.2812 27.2963 98.4808 26.436 98.8376 25.637C99.1991 24.8164 99.7153 24.0731 100.358 23.4478C101.034 22.7989 101.827 22.2832 102.694 21.9275C103.67 21.5254 104.72 21.3304 105.775 21.3548C107.001 21.3322 108.211 21.6235 109.292 22.2011C110.23 22.697 111.01 23.4469 111.542 24.365C110.807 24.8718 110.073 25.3431 109.328 25.8296C109.149 25.452 108.906 25.1089 108.608 24.816C108.341 24.5589 108.037 24.3436 107.706 24.1775C107.383 24.0209 107.043 23.9035 106.692 23.8278C106.359 23.7596 106.019 23.7223 105.679 23.7164C105.023 23.6966 104.372 23.8321 103.779 24.1116C103.252 24.3736 102.788 24.7471 102.42 25.2062C102.047 25.6411 101.759 26.1434 101.574 26.686C101.38 27.2179 101.273 27.7773 101.255 28.3431C101.24 28.9517 101.336 29.558 101.539 30.132C101.729 30.695 102.029 31.2145 102.423 31.66C102.816 32.1055 103.294 32.4681 103.829 32.7266C104.4 32.9997 105.026 33.14 105.659 33.1371C106.023 33.1361 106.386 33.0988 106.743 33.0256C107.116 32.9473 107.477 32.8213 107.817 32.6506C108.154 32.4691 108.461 32.2386 108.73 31.9665C109.023 31.6906 109.258 31.3578 109.419 30.9884C110.23 31.409 111.051 31.8246 111.872 32.2401C111.635 32.7732 111.29 33.2513 110.858 33.6438C110.401 34.0504 109.889 34.3915 109.338 34.6574C108.75 34.9409 108.131 35.1551 107.493 35.2959C106.859 35.436 106.212 35.5057 105.562 35.5037C104.512 35.5086 103.473 35.2801 102.522 34.8347C101.645 34.4201 100.856 33.8422 100.196 33.132C99.5627 32.4502 99.0657 31.6539 98.7312 30.7857C98.3955 29.9556 98.2317 29.066 98.2498 28.1708Z" fill="white"/>
<path d="M120.441 35.2099C119.381 35.2767 118.318 35.1178 117.324 34.7437C116.422 34.4028 115.597 33.886 114.897 33.2234C114.226 32.5885 113.687 31.8273 113.311 30.9835C112.937 30.153 112.737 29.2551 112.722 28.3446C112.707 27.434 112.878 26.5301 113.225 25.6878C113.762 24.363 114.668 23.2202 115.836 22.3955C117.004 21.5708 118.384 21.0989 119.812 21.0358C120.817 20.9748 121.824 21.1321 122.762 21.4969C124.496 22.177 125.916 23.4775 126.745 25.1456C127.152 25.9343 127.4 26.7952 127.475 27.6794C127.548 28.5943 127.428 29.5143 127.125 30.3805C126.821 31.2548 126.347 32.0607 125.731 32.7521C125.087 33.467 124.309 34.0489 123.441 34.465C122.501 34.9123 121.481 35.1656 120.441 35.2099ZM115.703 28.3078C115.722 28.9035 115.844 29.4914 116.062 30.046C116.273 30.5904 116.586 31.0893 116.985 31.5156C117.415 31.9654 117.939 32.3144 118.52 32.5378C119.101 32.7612 119.724 32.8535 120.345 32.8079C120.975 32.7946 121.593 32.6385 122.154 32.3515C122.715 32.0644 123.204 31.6539 123.583 31.1508C123.936 30.6844 124.195 30.1545 124.348 29.5899C124.502 29.0312 124.562 28.4505 124.525 27.872C124.487 27.2754 124.342 26.6903 124.1 26.1439C123.869 25.6108 123.545 25.1234 123.142 24.7047C122.738 24.2924 122.253 23.968 121.718 23.752C121.136 23.5242 120.512 23.4257 119.888 23.4632C119.243 23.4878 118.612 23.6612 118.044 23.9699C117.528 24.2421 117.077 24.6223 116.721 25.0848C116.369 25.5397 116.103 26.0549 115.936 26.6051C115.767 27.1563 115.688 27.7314 115.703 28.3078Z" fill="white"/>
<path d="M142.962 33.041L141.72 23.8585C140.747 26.3112 139.733 28.7572 138.679 31.1964L137.063 31.3839C135.485 29.2521 133.941 27.1051 132.431 24.9429C132.735 28.0139 133.037 31.0849 133.338 34.1559C132.325 34.2522 131.311 34.3485 130.298 34.4346C129.899 29.7927 129.497 25.149 129.091 20.5037C130.105 20.4125 131.118 20.3213 132.132 20.2199C133.841 22.7132 135.593 25.1913 137.387 27.6541C138.59 24.8467 139.74 22.0291 140.838 19.2013C141.852 19.0628 142.865 18.9209 143.879 18.7756L145.906 32.6103C144.989 32.7623 143.975 32.9042 142.962 33.041Z" fill="white"/>
<path d="M159.365 27.8619L159.837 30.1981C156.293 30.911 152.737 31.5529 149.169 32.1238C148.44 27.5224 147.706 22.9193 146.97 18.3145C150.284 17.7875 153.59 17.1912 156.887 16.5256L157.359 18.8618C154.977 19.3416 152.592 19.7858 150.203 20.1946C150.396 21.2993 150.583 22.4092 150.771 23.5139C152.862 23.1558 154.951 22.7707 157.039 22.3585L157.465 24.5224C155.364 24.9379 153.257 25.3264 151.146 25.6879C151.348 26.8839 151.556 28.0798 151.759 29.2809C154.303 28.8451 156.838 28.3721 159.365 27.8619Z" fill="white"/>
<path d="M161.352 24.5122L159.512 15.8414C160.419 15.6489 161.332 15.4512 162.239 15.2485C162.887 18.127 163.534 21.0087 164.18 23.8939C163.232 24.1068 162.294 24.3095 161.352 24.5122ZM162.446 29.6558C162.239 28.6879 162.031 27.7149 161.828 26.747C162.781 26.5443 163.73 26.3365 164.676 26.1237L165.33 29.0274C164.367 29.2403 163.409 29.4329 162.446 29.6558Z" fill="white"/>
<g opacity="0.1">
<path d="M34.889 4.09448C34.9424 4.73787 34.8859 5.38565 34.7218 6.01005C34.5721 6.63195 34.386 7.24451 34.1643 7.84453C33.7337 9.045 33.1711 10.1939 32.4869 11.2703C32.8214 10.0338 33.2623 8.84793 33.693 7.6621L34.3417 5.89349C34.5657 5.30728 34.7486 4.70615 34.889 4.09448Z" fill="black"/>
<path d="M35.3958 4.51025C35.6713 4.98648 35.881 5.49792 36.0191 6.03054C36.1649 6.56377 36.2683 7.1077 36.3282 7.65726C36.4496 8.75732 36.3793 9.87011 36.1204 10.9462C36.0495 10.3938 36.0191 9.85661 35.9735 9.31437C35.9279 8.77214 35.8772 8.2451 35.8265 7.713C35.715 6.65386 35.5731 5.615 35.3958 4.51025Z" fill="black"/>
<path d="M36.5967 4.09448C36.9847 4.50672 37.4013 4.89112 37.8433 5.24484C38.2737 5.59334 38.7312 5.90685 39.2116 6.18235C39.6985 6.46346 40.2069 6.70577 40.7319 6.90702C41.2386 7.12493 41.791 7.27696 42.3434 7.46446C41.7597 7.49489 41.1748 7.43332 40.6102 7.28203C39.4468 6.99724 38.3874 6.38941 37.5545 5.52862C37.148 5.11498 36.823 4.62845 36.5967 4.09448Z" fill="black"/>
</g>
<g opacity="0.1">
<path d="M180.502 4.09448C180.642 4.70787 180.825 5.3107 181.05 5.89856L181.703 7.64183C182.134 8.82765 182.57 10.0135 182.904 11.25C182.224 10.1699 181.661 9.0197 181.227 7.81919C181.005 7.21985 180.82 6.60715 180.675 5.98471C180.51 5.36912 180.451 4.72978 180.502 4.09448Z" fill="black"/>
<path d="M180.001 4.51025C179.823 5.59473 179.681 6.65386 179.57 7.72314C179.514 8.25524 179.464 8.78734 179.423 9.32451C179.383 9.86168 179.342 10.4039 179.271 10.9563C179.012 9.88024 178.942 8.76746 179.063 7.66739C179.123 7.11784 179.227 6.5739 179.372 6.04068C179.511 5.50429 179.723 4.98939 180.001 4.51025Z" fill="black"/>
<path d="M178.8 4.09448C178.564 4.63111 178.231 5.11918 177.817 5.53369C176.996 6.38529 175.953 6.99079 174.806 7.28203C174.244 7.43346 173.66 7.49503 173.078 7.46446C173.631 7.27696 174.168 7.12493 174.685 6.90702C175.718 6.49737 176.684 5.93725 177.553 5.24484C177.995 4.89112 178.412 4.50672 178.8 4.09448Z" fill="black"/>
</g>
<path d="M36.5969 4.09458C36.5969 4.33213 36.5264 4.56433 36.3945 4.76184C36.2625 4.95935 36.0749 5.11329 35.8555 5.20419C35.636 5.29509 35.3945 5.31888 35.1615 5.27254C34.9286 5.2262 34.7146 5.11181 34.5466 4.94384C34.3786 4.77587 34.2642 4.56187 34.2179 4.32889C34.1716 4.09592 34.1953 3.85443 34.2862 3.63497C34.3772 3.41551 34.5311 3.22793 34.7286 3.09596C34.9261 2.96399 35.1583 2.89355 35.3959 2.89355C35.7144 2.89355 36.0199 3.02009 36.2451 3.24533C36.4703 3.47056 36.5969 3.77605 36.5969 4.09458Z" fill="#263238"/>
<path d="M180.781 4.09458C180.781 4.33213 180.711 4.56433 180.579 4.76184C180.447 4.95935 180.259 5.11329 180.04 5.20419C179.82 5.29509 179.579 5.31888 179.346 5.27254C179.113 5.2262 178.899 5.11181 178.731 4.94384C178.563 4.77587 178.449 4.56187 178.402 4.32889C178.356 4.09592 178.38 3.85443 178.471 3.63497C178.562 3.41551 178.716 3.22793 178.913 3.09596C179.111 2.96399 179.343 2.89355 179.58 2.89355C179.899 2.89355 180.204 3.02009 180.43 3.24533C180.655 3.47056 180.781 3.77605 180.781 4.09458Z" fill="#263238"/>
<path d="M77.0823 64.5264C77.1303 64.8554 77.0466 65.1901 76.8492 65.4577C76.6518 65.7253 76.3568 65.9042 76.0282 65.9555C75.8654 65.9752 75.7003 65.9625 75.5424 65.9181C75.3845 65.8737 75.2369 65.7984 75.1083 65.6966C74.9796 65.5948 74.8725 65.4686 74.7929 65.3251C74.7133 65.1817 74.663 65.0239 74.6448 64.8609C74.5995 64.5315 74.685 64.1975 74.883 63.9304C75.081 63.6633 75.3756 63.4843 75.7039 63.4318C75.8664 63.4127 76.031 63.426 76.1883 63.4707C76.3456 63.5155 76.4925 63.5909 76.6206 63.6926C76.7487 63.7943 76.8554 63.9204 76.9346 64.0634C77.0139 64.2065 77.0641 64.3639 77.0823 64.5264Z" fill="#263238"/>
<path d="M173.935 69.7916C173.982 70.1211 173.897 70.4558 173.698 70.7232C173.5 70.9906 173.205 71.1693 172.876 71.2206C172.713 71.2404 172.548 71.2276 172.391 71.1831C172.233 71.1386 172.086 71.0633 171.958 70.9615C171.83 70.8596 171.723 70.7333 171.644 70.5899C171.565 70.4465 171.515 70.2888 171.497 70.126C171.451 69.7972 171.535 69.4632 171.732 69.1959C171.929 68.9286 172.224 68.7495 172.552 68.697C172.714 68.6779 172.879 68.6911 173.037 68.7358C173.194 68.7805 173.342 68.8558 173.47 68.9575C173.599 69.0591 173.706 69.1851 173.786 69.3282C173.865 69.4714 173.916 69.6288 173.935 69.7916Z" fill="#263238"/>
<path d="M146.103 59.8742C146.125 60.0386 146.082 60.2049 145.982 60.3376C145.883 60.4702 145.735 60.5586 145.571 60.5837C145.49 60.5943 145.408 60.5886 145.329 60.5669C145.251 60.5453 145.177 60.5081 145.113 60.4576C145.048 60.4071 144.995 60.3442 144.955 60.2728C144.916 60.2013 144.891 60.1227 144.882 60.0414C144.858 59.88 144.898 59.7156 144.992 59.5825C145.087 59.4493 145.229 59.3578 145.389 59.3269C145.472 59.3133 145.557 59.3169 145.639 59.3375C145.721 59.358 145.797 59.395 145.864 59.4463C145.931 59.4975 145.987 59.5619 146.028 59.6355C146.069 59.7091 146.095 59.7904 146.103 59.8742Z" fill="#FFC727"/>
<path d="M68.9741 59.8741C68.9978 60.0349 68.9583 60.1987 68.8638 60.331C68.7693 60.4633 68.6272 60.5538 68.4674 60.5835C68.3864 60.5941 68.3041 60.5885 68.2253 60.5668C68.1465 60.5451 68.0729 60.508 68.0087 60.4575C67.9444 60.4069 67.891 60.3441 67.8514 60.2726C67.8118 60.2012 67.7869 60.1225 67.7782 60.0413C67.7543 59.8799 67.7937 59.7154 67.8881 59.5823C67.9825 59.4492 68.1247 59.3577 68.2849 59.3268C68.3662 59.3169 68.4486 59.3233 68.5274 59.3455C68.6062 59.3678 68.6798 59.4054 68.7439 59.4564C68.808 59.5073 68.8614 59.5704 68.9009 59.6421C68.9404 59.7138 68.9653 59.7927 68.9741 59.8741Z" fill="#FFC727"/>
<path d="M160.987 19.7689C161.01 19.9295 160.97 20.0926 160.875 20.2246C160.781 20.3566 160.64 20.4474 160.48 20.4783C160.399 20.4896 160.317 20.4845 160.238 20.4631C160.159 20.4417 160.085 20.4046 160.02 20.354C159.956 20.3033 159.902 20.2402 159.863 20.1684C159.824 20.0966 159.799 20.0176 159.791 19.9361C159.766 19.7745 159.805 19.6094 159.9 19.476C159.994 19.3425 160.137 19.2513 160.298 19.2215C160.379 19.2117 160.462 19.2181 160.54 19.2403C160.619 19.2625 160.693 19.3002 160.757 19.3511C160.821 19.402 160.874 19.4652 160.914 19.5369C160.953 19.6086 160.978 19.6875 160.987 19.7689Z" fill="#263238"/>
<path d="M128.519 100.005C128.544 100.166 128.505 100.331 128.41 100.465C128.316 100.598 128.173 100.689 128.012 100.719C127.931 100.729 127.848 100.723 127.77 100.7C127.691 100.678 127.617 100.64 127.553 100.59C127.489 100.539 127.436 100.476 127.396 100.404C127.357 100.332 127.332 100.253 127.323 100.172C127.3 100.011 127.34 99.8481 127.435 99.7161C127.529 99.5841 127.67 99.4933 127.83 99.4624C127.911 99.4511 127.993 99.4562 128.072 99.4776C128.151 99.499 128.225 99.5361 128.29 99.5867C128.354 99.6374 128.408 99.7005 128.447 99.7723C128.486 99.8441 128.511 99.9231 128.519 100.005Z" fill="#263238"/>
<path d="M118.292 10.5506C118.316 10.712 118.277 10.8765 118.182 11.0096C118.088 11.1427 117.946 11.2342 117.786 11.2651C117.704 11.275 117.622 11.2686 117.543 11.2464C117.464 11.2241 117.391 11.1865 117.327 11.1355C117.262 11.0846 117.209 11.0215 117.17 10.9498C117.13 10.8781 117.105 10.7992 117.096 10.7178C117.073 10.5564 117.112 10.392 117.206 10.2588C117.301 10.1257 117.443 10.0342 117.603 10.0033C117.684 9.99342 117.767 9.99979 117.846 10.022C117.924 10.0443 117.998 10.082 118.062 10.1329C118.126 10.1838 118.18 10.2469 118.219 10.3186C118.259 10.3903 118.284 10.4692 118.292 10.5506Z" fill="#263238"/>
<path d="M49.6511 75.5127C49.675 75.6742 49.6356 75.8386 49.5412 75.9717C49.4468 76.1049 49.3046 76.1964 49.1444 76.2273C49.0631 76.2372 48.9807 76.2308 48.9019 76.2085C48.8231 76.1863 48.7495 76.1486 48.6854 76.0977C48.6212 76.0468 48.5679 75.9836 48.5284 75.9119C48.4888 75.8402 48.464 75.7614 48.4552 75.68C48.4313 75.5185 48.4707 75.3541 48.5651 75.221C48.6595 75.0879 48.8017 74.9963 48.9619 74.9654C49.0432 74.9556 49.1256 74.9619 49.2044 74.9842C49.2832 75.0064 49.3568 75.0441 49.4209 75.095C49.485 75.1459 49.5384 75.2091 49.5779 75.2808C49.6175 75.3525 49.6423 75.4313 49.6511 75.5127Z" fill="#FFC727"/>
<path d="M154.45 125.718C154.475 125.88 154.436 126.045 154.342 126.178C154.247 126.311 154.104 126.403 153.943 126.432C153.862 126.442 153.779 126.436 153.701 126.414C153.622 126.391 153.548 126.354 153.484 126.303C153.42 126.252 153.367 126.189 153.327 126.117C153.288 126.045 153.263 125.967 153.254 125.885C153.231 125.72 153.274 125.552 153.373 125.419C153.473 125.285 153.621 125.196 153.786 125.171C153.946 125.156 154.106 125.206 154.23 125.308C154.354 125.411 154.433 125.558 154.45 125.718Z" fill="#455A64"/>
<path d="M71.0923 114.757C71.1162 114.918 71.0768 115.083 70.9824 115.216C70.888 115.349 70.7458 115.441 70.5856 115.471C70.5042 115.482 70.4215 115.476 70.3424 115.454C70.2634 115.432 70.1895 115.395 70.1252 115.344C70.0609 115.293 70.0076 115.229 69.9683 115.157C69.929 115.085 69.9045 115.006 69.8964 114.924C69.8712 114.762 69.9101 114.597 70.0047 114.464C70.0994 114.331 70.2423 114.239 70.4032 114.21C70.4844 114.2 70.5669 114.206 70.6457 114.228C70.7244 114.251 70.798 114.288 70.8622 114.339C70.9263 114.39 70.9796 114.453 71.0192 114.525C71.0587 114.597 71.0835 114.675 71.0923 114.757Z" fill="#FFC727"/>
<path d="M79.8289 90.3512C79.8769 90.6802 79.7931 91.0149 79.5958 91.2825C79.3984 91.5501 79.1033 91.729 78.7748 91.7802C78.6118 91.8007 78.4465 91.7885 78.2883 91.7444C78.1301 91.7002 77.9823 91.625 77.8535 91.5231C77.7247 91.4212 77.6175 91.2946 77.5382 91.1509C77.4588 91.0071 77.4089 90.8489 77.3913 90.6856C77.3448 90.3566 77.43 90.0226 77.6283 89.756C77.8266 89.4894 78.122 89.3117 78.4505 89.2616C78.6127 89.2412 78.7775 89.2532 78.935 89.2971C79.0926 89.341 79.2399 89.4159 79.3682 89.5173C79.4965 89.6187 79.6033 89.7447 79.6824 89.8879C79.7615 90.0311 79.8113 90.1886 79.8289 90.3512Z" fill="#FFC727"/>
<path d="M90.2581 24.5729C90.3045 24.8956 90.2252 25.2238 90.0366 25.4897C89.848 25.7557 89.5644 25.939 89.2445 26.002C89.0821 26.021 88.9175 26.0078 88.7602 25.963C88.6029 25.9183 88.4559 25.8428 88.3279 25.7411C88.1998 25.6394 88.093 25.5134 88.0138 25.3703C87.9346 25.2272 87.8844 25.0699 87.8662 24.9074C87.8181 24.5783 87.9019 24.2436 88.0993 23.976C88.2966 23.7084 88.5917 23.5295 88.9202 23.4783C89.2417 23.4511 89.5612 23.5502 89.8109 23.7545C90.0606 23.9589 90.221 24.2524 90.2581 24.5729Z" fill="#455A64"/>
<path d="M73.535 102.797C73.5816 103.127 73.4966 103.461 73.2984 103.729C73.1002 103.996 72.8047 104.175 72.4759 104.226C72.3136 104.247 72.1489 104.234 71.9913 104.191C71.8337 104.147 71.6865 104.072 71.5582 103.97C71.4298 103.869 71.323 103.743 71.2439 103.6C71.1648 103.457 71.115 103.299 71.0975 103.137C71.0494 102.808 71.1332 102.473 71.3306 102.205C71.528 101.938 71.823 101.759 72.1515 101.707C72.3141 101.687 72.4791 101.699 72.637 101.743C72.7949 101.787 72.9425 101.861 73.0712 101.963C73.1999 102.064 73.3072 102.19 73.3868 102.333C73.4665 102.477 73.5168 102.634 73.535 102.797Z" fill="#455A64"/>
<path d="M135.983 15.0813C136.031 15.4097 135.947 15.7438 135.75 16.0106C135.553 16.2774 135.257 16.4552 134.929 16.5053C134.767 16.5257 134.602 16.5137 134.445 16.4698C134.287 16.4259 134.14 16.351 134.012 16.2496C133.883 16.1482 133.777 16.0222 133.697 15.879C133.618 15.7359 133.569 15.5784 133.551 15.4157C133.503 15.0867 133.587 14.752 133.784 14.4844C133.981 14.2168 134.276 14.0379 134.605 13.9867C134.768 13.9662 134.933 13.9785 135.091 14.0227C135.249 14.0669 135.396 14.1422 135.524 14.2441C135.653 14.3461 135.76 14.4727 135.838 14.6164C135.917 14.7602 135.967 14.9182 135.983 15.0813Z" fill="#263238"/>
<path d="M134.98 56.3826L136.723 55.7796C136.723 55.7796 135.532 55.1461 135.537 53.1748C135.543 51.2035 137.164 50.4282 136.46 48.6494L134.524 49.1967C134.745 49.6709 134.866 50.1852 134.881 50.7081C134.896 51.231 134.804 51.7514 134.61 52.2373C134.098 53.342 133.637 54.685 134.98 56.3826Z" fill="#263238"/>
<path d="M92.336 64.0752L90.618 63.386C90.618 63.386 91.1552 64.6529 89.9542 66.1783C88.7532 67.7036 87.02 67.2475 86.4778 69.0921L88.3123 69.9384C88.4257 69.4385 88.6414 68.9674 88.9458 68.5549C89.2502 68.1424 89.6366 67.7973 90.0809 67.5414C91.1704 67.0144 92.3512 66.2745 92.336 64.0752Z" fill="#455A64"/>
<path d="M52.6158 97.7903L50.903 97.1213C50.903 97.1213 51.4097 98.3882 50.234 99.9136C49.0583 101.439 47.2999 100.983 46.7627 102.827L48.5921 103.674C48.7055 103.174 48.9212 102.703 49.2256 102.29C49.53 101.878 49.9165 101.533 50.3607 101.277C51.4503 100.724 52.631 99.9845 52.6158 97.7903Z" fill="#263238"/>
<path d="M184.344 94.2986L182.631 93.6348C182.631 93.6348 183.163 94.8966 181.962 96.427C180.761 97.9575 179.028 97.4963 178.491 99.3359L180.32 100.187C180.434 99.6868 180.65 99.2152 180.954 98.802C181.259 98.3887 181.645 98.0425 182.089 97.7852C183.178 97.2176 184.359 96.4777 184.344 94.2986Z" fill="#FFC727"/>
<path d="M59.7358 47.0378L59.9841 45.1577C59.9841 45.1577 58.9098 45.9787 57.2071 45.1071C55.5043 44.2354 55.55 42.3756 53.6952 42.2388L53.2999 44.2658C53.8066 44.2735 54.3058 44.3896 54.7639 44.6064C55.2219 44.8232 55.6282 45.1356 55.9554 45.5226C56.7104 46.5108 57.6682 47.5395 59.7358 47.0378Z" fill="#263238"/>
<path d="M49.0582 122.86L49.3065 120.98C49.3065 120.98 48.2322 121.801 46.5295 120.929C44.8267 120.057 44.8723 118.203 43.0176 118.061L42.6223 120.088C43.129 120.095 43.6282 120.212 44.0863 120.428C44.5443 120.645 44.9506 120.958 45.2778 121.345C46.0328 122.333 46.9906 123.362 49.0582 122.86Z" fill="#FFC727"/>
<path d="M111 117.807L111.248 115.927C111.248 115.927 110.174 116.748 108.471 115.876C106.769 115.005 106.814 113.15 104.959 113.008L104.564 115.035C105.07 115.043 105.568 115.16 106.025 115.377C106.482 115.593 106.888 115.906 107.214 116.292C107.995 117.28 108.932 118.309 111 117.807Z" fill="#455A64"/>
<path d="M184.922 51.8064L185.17 49.9263C185.17 49.9263 184.101 50.7472 182.393 49.8705C180.685 48.9938 180.736 47.1442 178.881 47.0073L178.491 49.0344C178.997 49.0427 179.495 49.1592 179.952 49.376C180.409 49.5928 180.814 49.9048 181.141 50.2912C181.896 51.2793 182.854 52.303 184.922 51.8064Z" fill="#FFC727"/>
<path d="M74.9133 125.049L75.263 126.914C75.263 126.914 76.0231 125.779 77.9083 126.042C79.7935 126.306 80.3205 128.069 82.1195 127.588L81.8611 125.525C81.3846 125.687 80.8788 125.744 80.3784 125.691C79.878 125.639 79.3949 125.479 78.9624 125.221C77.9438 124.542 76.7174 123.889 74.9133 125.049Z" fill="#455A64"/>
<path d="M105.603 86.1904L103.667 85.106C103.667 85.106 102.106 87.5486 103.986 88.78C103.986 88.7597 103.596 87.1736 105.603 86.1904Z" fill="#FFC727"/>
<path d="M104.037 91.7342L106.064 90.9487C106.064 90.9487 106.181 89.1447 103.981 88.7595C103.986 88.7595 105.365 90.3913 104.037 91.7342Z" fill="#FFC727"/>
<path d="M51.5413 9.9729L49.6106 8.88843C49.6106 8.88843 48.0447 11.331 49.9298 12.5625C49.9298 12.5625 49.5396 10.9763 51.5413 9.9729Z" fill="#455A64"/>
<path d="M49.9805 15.5374L52.0076 14.752C52.0076 14.752 52.1242 12.9479 49.9248 12.5627C49.9299 12.5627 51.3083 14.1945 49.9805 15.5374Z" fill="#455A64"/>
<path d="M118.576 55.4955C118.529 55.1659 118.614 54.8312 118.813 54.5638C119.011 54.2964 119.306 54.1177 119.635 54.0664C119.798 54.0467 119.963 54.0594 120.12 54.1039C120.278 54.1484 120.425 54.2237 120.553 54.3256C120.681 54.4274 120.788 54.5537 120.867 54.6971C120.946 54.8405 120.996 54.9982 121.014 55.161C121.059 55.4904 120.973 55.8244 120.775 56.0915C120.577 56.3586 120.283 56.5375 119.954 56.5901C119.792 56.6091 119.627 56.5959 119.47 56.5511C119.313 56.5064 119.166 56.4309 119.038 56.3292C118.91 56.2275 118.803 56.1015 118.724 55.9584C118.644 55.8153 118.594 55.658 118.576 55.4955Z" fill="#263238"/>
<path d="M158.19 80.0331C158.143 79.7041 158.229 79.37 158.427 79.1034C158.625 78.8368 158.921 78.6591 159.249 78.609C159.411 78.5886 159.576 78.6007 159.734 78.6445C159.891 78.6884 160.038 78.7633 160.167 78.8647C160.295 78.9662 160.402 79.0921 160.481 79.2353C160.56 79.3785 160.61 79.536 160.627 79.6986C160.675 80.0276 160.592 80.3623 160.394 80.6299C160.197 80.8975 159.902 81.0764 159.573 81.1277C159.411 81.1474 159.245 81.1347 159.087 81.0903C158.93 81.0459 158.782 80.9706 158.653 80.8688C158.525 80.767 158.418 80.6408 158.338 80.4973C158.258 80.3539 158.208 80.1961 158.19 80.0331Z" fill="#FFC727"/>
<path d="M132.319 124.583C132.273 124.253 132.358 123.918 132.556 123.651C132.754 123.384 133.05 123.205 133.379 123.154C133.541 123.134 133.706 123.147 133.864 123.191C134.021 123.236 134.168 123.311 134.297 123.413C134.425 123.515 134.532 123.641 134.611 123.784C134.69 123.928 134.739 124.085 134.757 124.248C134.804 124.577 134.719 124.911 134.522 125.178C134.325 125.446 134.031 125.625 133.703 125.677C133.54 125.696 133.375 125.683 133.218 125.638C133.06 125.594 132.913 125.518 132.784 125.417C132.656 125.315 132.549 125.189 132.469 125.046C132.389 124.903 132.338 124.745 132.319 124.583Z" fill="#FFC727"/>
<path d="M29.8114 103.76C29.7863 103.598 29.8252 103.433 29.9198 103.3C30.0144 103.166 30.1573 103.075 30.3182 103.045C30.3995 103.035 30.4819 103.042 30.5607 103.064C30.6395 103.086 30.7131 103.124 30.7772 103.175C30.8413 103.226 30.8947 103.289 30.9342 103.361C30.9737 103.432 30.9986 103.511 31.0074 103.593C31.0293 103.758 30.9859 103.925 30.8865 104.058C30.7872 104.191 30.6396 104.281 30.4753 104.307C30.3149 104.321 30.1555 104.272 30.0313 104.169C29.9071 104.067 29.8281 103.92 29.8114 103.76Z" fill="#FFC727"/>
<path d="M129.228 90.0774C129.204 89.916 129.244 89.7516 129.338 89.6185C129.433 89.4853 129.575 89.3938 129.735 89.3629C129.816 89.353 129.899 89.3594 129.978 89.3817C130.056 89.4039 130.13 89.4416 130.194 89.4925C130.258 89.5434 130.311 89.6066 130.351 89.6783C130.391 89.75 130.415 89.8288 130.424 89.9102C130.448 90.0717 130.409 90.2361 130.314 90.3692C130.22 90.5023 130.078 90.5939 129.917 90.6248C129.754 90.6433 129.589 90.5961 129.46 90.4935C129.331 90.3909 129.247 90.2413 129.228 90.0774Z" fill="#FFC727"/>
<path d="M112.612 39.1575C112.588 38.9961 112.627 38.8317 112.722 38.6985C112.816 38.5654 112.958 38.4739 113.118 38.443C113.2 38.4331 113.282 38.4395 113.361 38.4617C113.44 38.484 113.513 38.5217 113.577 38.5726C113.641 38.6235 113.695 38.6866 113.734 38.7583C113.774 38.83 113.799 38.9089 113.808 38.9903C113.831 39.1517 113.792 39.3162 113.698 39.4493C113.603 39.5824 113.461 39.6739 113.301 39.7048C113.219 39.7147 113.137 39.7083 113.058 39.6861C112.979 39.6638 112.906 39.6262 112.842 39.5752C112.778 39.5243 112.724 39.4612 112.685 39.3895C112.645 39.3178 112.62 39.2389 112.612 39.1575Z" fill="#37474F"/>
<path d="M158.975 44.8739C158.929 44.5443 159.014 44.2096 159.212 43.9422C159.41 43.6748 159.706 43.4961 160.034 43.4448C160.197 43.4251 160.362 43.4378 160.519 43.4823C160.677 43.5268 160.824 43.6021 160.952 43.704C161.081 43.8058 161.187 43.9321 161.266 44.0755C161.345 44.2189 161.395 44.3766 161.413 44.5394C161.459 44.8684 161.374 45.2025 161.176 45.4691C160.978 45.7357 160.682 45.9133 160.354 45.9634C160.191 45.9832 160.027 45.9706 159.87 45.9264C159.712 45.8823 159.565 45.8074 159.437 45.7061C159.309 45.6047 159.202 45.479 159.123 45.3362C159.044 45.1934 158.993 45.0362 158.975 44.8739Z" fill="#FFC727"/>
<path d="M32.6594 90.3712C32.6128 90.043 32.6972 89.7096 32.8945 89.4431C33.0917 89.1766 33.3859 88.9985 33.7135 88.9472C33.876 88.9267 34.041 88.9387 34.1989 88.9826C34.3568 89.0264 34.5044 89.1012 34.6331 89.2026C34.7618 89.304 34.8691 89.4299 34.9487 89.5731C35.0284 89.7163 35.0787 89.8739 35.0969 90.0367C35.1435 90.3663 35.0585 90.701 34.8603 90.9684C34.6621 91.2358 34.3667 91.4145 34.0378 91.4658C33.8751 91.4863 33.71 91.474 33.5521 91.4298C33.3943 91.3856 33.2468 91.3103 33.1184 91.2083C32.99 91.1064 32.8833 90.9798 32.8045 90.8361C32.7256 90.6923 32.6763 90.5343 32.6594 90.3712Z" fill="#455A64"/>
<path d="M84.025 45.4769L81.0959 46.3384C81.0959 46.3384 79.7023 42.5478 82.6162 41.4785C82.601 41.4785 81.6128 43.4954 84.025 45.4769Z" fill="#455A64"/>
<path d="M83.5435 37.4805L86.0774 39.1731C86.0774 39.1731 85.7074 41.6461 82.6212 41.4788C82.601 41.4788 84.9473 39.7052 83.5435 37.4805Z" fill="#455A64"/>
<path d="M177.66 118.233L174.736 119.094C174.736 119.094 173.342 115.304 176.256 114.235C176.241 114.235 175.252 116.252 177.66 118.233Z" fill="#455A64"/>
<path d="M177.183 110.236L179.717 111.929C179.717 111.929 179.347 114.402 176.261 114.235C176.241 114.235 178.582 112.461 177.183 110.236Z" fill="#455A64"/>
<path d="M157.957 92.7428L157.562 89.6161C157.562 89.6161 161.383 88.7394 161.981 91.8661C161.981 91.8661 160.192 90.5638 157.957 92.7428Z" fill="#263238"/>
<path d="M165.67 93.4118L163.683 95.743C163.683 95.743 161.372 95.0031 161.98 91.8662C161.98 91.8662 163.338 94.5267 165.67 93.4118Z" fill="#263238"/>
<path d="M87.0301 113.981L84.101 114.838C84.101 114.838 82.7074 111.052 85.6213 109.983C85.6112 110.008 84.623 112 87.0301 113.981Z" fill="#263238"/>
<path d="M86.5537 105.979L89.0875 107.677C89.0875 107.677 88.7175 110.15 85.6314 109.983C85.6111 110.008 87.9523 108.209 86.5537 105.979Z" fill="#263238"/>
<path d="M139.556 36.6897L141.487 37.7793C141.487 37.7793 143.053 35.3367 141.173 34.1052C141.173 34.1052 141.558 35.6914 139.556 36.6897Z" fill="#455A64"/>
<path d="M141.122 31.1306L139.095 31.911C139.095 31.911 138.973 33.7151 141.178 34.1053C141.173 34.1053 139.789 32.4735 141.122 31.1306Z" fill="#455A64"/>
<path d="M136.085 99.4826L136.404 101.733C136.404 101.733 139.232 101.56 139.049 99.2646C139.049 99.2646 138.061 100.537 136.085 99.4826Z" fill="#FFC727"/>
<path d="M141.32 97.4353L139.495 96.2241C139.495 96.2241 138.031 97.2072 139.049 99.2647C139.049 99.2647 139.485 97.1363 141.32 97.4353Z" fill="#FFC727"/>
</svg>
